<svg xmlns="http://www.w3.org/2000/svg" xml:space="preserve" width="300" height="223.76" viewBox="-76.006 558.537 300 223.76"><path fill="#010101" d="m18.726 598.938-43.586 34.055-4.878 51.686L6.42 726.973l159.266 14.924 12.041-127.77-159.001-15.189zm-32.82 66.602c-2.451-.232-4.248-2.418-4.017-4.869a4.472 4.472 0 0 1 4.87-4.017 4.46 4.46 0 0 1 4.016 4.869 4.46 4.46 0 0 1-4.869 4.017z"/><path fill="#F6EB16" d="m19.761 601.836-42.004 32.481-4.862 49.326L7.753 724.1l155.587 14.89 11.479-122.263-155.058-14.891zm-26.41 59.928a7.05 7.05 0 0 1-7.686 6.36 7.069 7.069 0 0 1-6.361-7.702c.374-3.875 3.819-6.717 7.703-6.352a7.05 7.05 0 0 1 6.344 7.694z"/><path fill="#010101" d="m49.501 628.554 35.197 3.362-1.011 10.542-15.851-1.515-.322 3.395 14.46 1.384-.928 9.665-14.378-1.366-.363 3.833 16.206 1.549-.96 10.021-35.454-3.397zm40.447 28.48-6.659 9.823s8.365 4.496 19.969 5.506c11.585 1.027 20.083-2.294 22.808-7.841 2.732-5.533-.539-11.829-5.905-13.574-5.374-1.739-14.692-3.595-13.723-5.442.97-1.838 6.817-1.458 10.369.026 3.553 1.482 4.522 2.367 4.522 2.367l6.112-8.736s-6.493-4.754-18.644-5.476c-12.157-.72-21.093 5.368-21.714 11.023-.629 5.657 3.006 8.994 8.53 11.016 0 0 4.688 1.508 8.223 2.277 3.528.779 5.772 3.104 1.557 3.934-4.215.829-12.886-2.286-15.445-4.903zm48.374-7.6-10.361-.988 1.16-12.199 39.901 3.81-1.159 12.199-10.369-.993-2.418 25.349-18.915-1.804zm-85.881 21.953 18.31 1.656-1.946 21.268s-1.806 5.102 4.29 5.688c6.104.582 5.831-4.901 5.831-4.901l2.004-20.995 18.385 1.757-2.36 24.745s-2.169 13.508-24.654 11.362c-22.477-2.145-22.17-16.356-22.17-16.356l2.31-24.224z"/><path fill="#010101" d="m120.4 677.88 5.251 10.344 6.775-9.193 21.342 2.029-19.91 19.726-1.54 16.116-18.725-1.789 1.508-15.85-15.968-23.33zm-79.777 10.857s7.711-1.516 7.513-9.393c-.199-7.884-15.935-9.838-15.935-9.838l-25.972-2.575-3.544 37.606s20.729 2.179 26.765 2.667c6.038.479 18.204-.034 19.405-7.811 1.192-7.782-8.232-10.656-8.232-10.656zm-17.731-10.765s7.976-.737 7.537 3.005c-.447 3.734-8.025 2.047-8.025 2.047l.488-5.052zm-1.665 19.178.415-6.111s9.971-.373 9.647 3.909c-.323 4.281-10.062 2.202-10.062 2.202zm15.603-51.503s7.711-1.516 7.512-9.393c-.199-7.874-15.934-9.846-15.934-9.846l-25.98-2.567-3.536 37.606s20.729 2.18 26.758 2.659c6.037.497 18.203-.024 19.404-7.803 1.2-7.782-8.224-10.656-8.224-10.656zM19.256 634.98s7.984-.729 7.544 3.006c-.447 3.734-8.024 2.045-8.024 2.045l.48-5.051zM17.6 654.17l.414-6.121s9.962-.364 9.648 3.917c-.323 4.273-10.062 2.204-10.062 2.204zm136.309 30.583a3.035 3.035 0 0 1 3.305-2.732 3.05 3.05 0 0 1 2.741 3.313 3.043 3.043 0 0 1-3.313 2.733 3.05 3.05 0 0 1-2.733-3.314zm5.299.505c.141-1.415-.786-2.534-2.045-2.649-1.267-.125-2.386.805-2.517 2.212-.141 1.415.786 2.532 2.045 2.657 1.267.117 2.385-.803 2.517-2.22zm-3.279-2.053 1.267.123c.829.075 1.242.407 1.176 1.127-.058.588-.422.837-.986.837l.778 1.581-.662-.058-.737-1.565-.389-.032-.142 1.473-.637-.058.332-3.428zm.497 1.524.555.059c.38.033.711.016.753-.448.042-.396-.315-.496-.646-.528l-.571-.06-.091.977z"/></svg>